<?xml version="1.0" encoding="UTF-8"?>
<svg xmlns="http://www.w3.org/2000/svg" viewBox="0 0 1080 150">
  <defs>
    <style>
      .cls-1 {
        fill: #e0e0e0;
      }
      .cls-2 {
        fill: #d0d0d0;
      }
      .cls-3 {
        fill: #fff;
      }
      .cls-4 {
        fill: #f0f0f0;
      }
      .cls-5 {
        fill: #c8c8c8;
      }
    </style>
  </defs>
  <g>
    <polygon class="cls-3" points="0 64.33 46 42 54 35 85 27 55.67 45.67 34.33 64.33 15 85 0 89 0 64.33"/>
    <polygon class="cls-3" points="128 0 97.74 19 85 27 106.5 25 116 36 135 42 139.67 27 131.67 21 128 0"/>
    <polygon class="cls-3" points="147 4 185.67 0 180 36 167.83 36 158 32 154.33 36 147 24 147 4"/>
    <polygon class="cls-3" points="212 10 247.67 0 237.67 27 229.83 31.67 215 27 212 10"/>
    <polygon class="cls-3" points="282 4 273 21 255 27 261 15.5 259 4 268.5 7 282 4"/>
    <polygon class="cls-3" points="325 21 391 9 395 12 398.33 9 411 9 407.67 18 399 42 396.77 53.5 387.67 42 370 39 325 21"/>
    <polygon class="cls-3" points="456 51 443 46 449.5 39 463.67 31.67 483 21 498.33 21 519.67 21 519.67 27 506.33 33.5 533 36 535.67 51 545.67 51 562 80 531.67 58 517.67 50.5 505.67 58 497 58 462 68 451 66 447 58 456 51 456 51"/>
    <polygon class="cls-3" points="626 53.5 626 66 630.33 66 628.17 75.67 637 83 626 97 641 97 646 86 662 69 667.67 58 678 54 678 50.5 667.67 50.5 655 45 647 58 626 53.5"/>
    <polygon class="cls-3" points="693 45 709 48 733 45 725 62 713 62 697.35 58 693 45"/>
    <polygon class="cls-3" points="831 58 839 62 839 71 839 80 827 93 799.67 93 791 89 773.67 89 766.33 80 753.67 76 745.17 71 763 58 771.67 53.5 776.33 50.5 794 58 810.33 53.5 821 53.5 831 58"/>
    <polygon class="cls-4" points="1054 83 1030.33 62 1048.33 62 1054 58 1063.67 53.5 1080 32.15 1057 45 1024.33 45 1009 45 1001.67 40 985 45 951.67 50.5 942.33 53.5 923.67 58 903.67 62 875 83 899 80 902.33 71.75 926.33 62 958.33 61.5 957 71 985.67 71 976 80 982 86 1007.67 80 1027 77 1054 83"/>
    <polygon class="cls-4" points="64 89 130.32 51.54 154.33 36 159 45 166.33 53.5 180.33 58 186 67 199.67 71 199.67 86 192.33 80 156 67 147 75 108.33 86 95.67 80 64 89"/>
    <polygon class="cls-4" points="255 27 261.67 36 268.5 36 282 40 288.33 50.5 292.4 52.16 286.33 71.75 305.69 53.36 305 39 300.9 30.48 296.33 21 282 13 279.35 9 273 21 255 27"/>
    <polygon class="cls-4" points="435 66 459 80 468 77 475 73 481 71.75 492.33 73 502.5 86 511 93 520 107 525 102.33 510.33 80 497.67 71 497 58 462 68 451 66 435 66"/>
    <polygon class="cls-4" points="615.67 53.5 626 53.5 635.67 50.5 643.67 53.5 652 45 659.3 34.64 636.33 40.38 615.67 53.5"/>
    <polygon class="cls-4" points="678 50.5 697.35 58 713 71 718.33 97 709 89 693 71 667.67 58 678 54 678 50.5"/>
    <polygon class="cls-4" points="713 62 726 89 730 102 739 107 739 93 733 82.5 726 71 725 62 713 62"/>
    <polygon class="cls-4" points="733 45 725 62 739 67.67 744 89 746.33 107 754 102 760 103 753.67 76 745.17 71 767.41 55.71 756.54 48.65 746.67 50.5 733 45"/>
    <polygon class="cls-4" points="839 62 839 80 827 93 842.09 102.76 861.33 125 869 120 875 121 868.67 94 860.17 89 875 83 884.78 75.83 854.39 63.26 839 62"/>
    <polygon class="cls-1" points="854.39 63.26 884.78 75.83 903.67 62 854.39 63.26"/>
    <polygon class="cls-1" points="902.33 71.75 899 80 930.72 78.37 926.33 62 902.33 71.75"/>
    <polygon class="cls-1" points="957 71 958.33 82.26 976 80 985.67 71 957 71"/>
    <polygon class="cls-1" points="1030.33 62 1054 83 1080 86 1080 32.15 1063.67 53.5 1054 58 1048.33 62 1030.33 62"/>
    <polygon class="cls-4" points="678 110.33 690 101 684 89 678 80 662 69 649.29 82.5 652 89 664 101 673.67 110.33 678 110.33"/>
    <polygon class="cls-1" points="411 9 425.67 33.5 443 36 449.5 39 463.67 31.67 451 27 443 15.5 435 12.33 422 12 411 9"/>
    <polygon class="cls-1" points="135 42 139.67 27 131.67 21 128 0 147 4 147 24 154.33 36 135 42"/>
    <polygon class="cls-1" points="185.67 0 212 10 215 27 191 36 180 36 185.67 0"/>
    <polygon class="cls-1" points="247.67 0 259 4 261 15.5 255 27 229.83 31.67 237.67 27 247.67 0"/>
    <polygon class="cls-1" points="411 9 425.67 33.5 443 36 449.5 39 443 46 456 51 447 58 451 66 435 66 459 80 411 115 403 110.33 389 115 362.33 89.67 376.33 82.5 388.33 71.75 396.77 53.5 399 42 411 9"/>
    <polygon class="cls-1" points="282 4 325 21 370 39 387.67 42 396.77 53.5 388.33 71.75 376.33 82.5 362.33 89.67 351.67 97 339.39 97 325 107 313 115 309 110.33 291.67 107 279.35 107 279.35 97 290.33 89 286.33 71.75 305.69 53.36 305 39 296.33 21 282 13 279.35 9 282 4"/>
    <polygon class="cls-2" points="167.83 36 191 36 215 27 229.83 31.67 255 27 261.67 36 268.5 36 282 40 288.33 50.5 292.4 52.16 286.33 71.75 290.33 89 279.35 97 279.35 107 271.67 110.33 255 99.67 245.42 99.67 222.33 84.5 199.67 86 199.67 71 186 67 180.33 58 166.33 53.5 159 45 154.33 36 158 32 167.83 36"/>
    <polygon class="cls-2" points="497 58 505.67 58 517.67 50.5 531.67 58 562 80 545.67 51 535.67 51 533 36 506.33 33.5 519.67 27 519.67 21 541.59 34.43 564.09 32.26 581 48 612.33 50.5 626 53.5 626 66 630.33 66 628.17 75.67 637 83 626 97 609 110 592.33 115 577 118 590 132 578.33 132 553 107 543.67 115 525 102.33 510.33 80 497.67 71 497 58"/>
    <polygon class="cls-2" points="659.3 34.64 693 45 697.35 58 678 50.5 664.39 49.08 655 45 647 58 626 53.5 635.67 50.5 643.67 53.5 652 45 659.3 34.64"/>
    <polygon class="cls-2" points="662 69 667.67 58 693 71 709 89 718.33 97 713 71 697.35 58 713 62 726 89 730 102 739 107 739 93 734.14 84.5 726 71 725 62 739 67.67 744 89 746.33 107 754 102 760 103 753.67 76 753.67 76 766.33 80 773.67 89 791 89 799.67 93 827 93 842.09 102.76 814 120 788.33 107 763 101 749 120 763 144.33 739 132 721 110 690 101 684 89 678 80 662 69"/>
    <polygon class="cls-4" points="113.67 9 88.33 9 54 35 85 27 113.67 9"/>
    <polygon class="cls-4" points="46 42 22 39 0 64.33 46 42"/>
    <polygon class="cls-1" points="106.5 25 85 27 55.67 45.67 34.33 64.33 15 85 15 93.67 21.67 97 42.5 97 64 89 130.32 51.54 154.33 36 154.33 36 135 42 116 36 106.5 25"/>
    <polygon class="cls-3" points="926.33 62 958.33 61.5 957 71 958.33 82.26 930.72 78.37 926.33 62"/>
    <polygon class="cls-5" points="1080 86 1080 149.98 0 149.98 0 64.33 0 89 15 85 15 93.67 21.67 97 42.5 97 64 89 95.67 80 108.33 86 147 75 156 67 192.33 80 199.67 86 222.33 84.5 245.42 99.67 255 99.67 271.67 110.33 279.35 107 291.67 107 309 110.33 313 115 339.39 97 351.67 97 362.33 89.67 389 115 403 110.33 411 115 459 80 468 77 475 73 481 71.75 492.33 73 502.5 86 511 93 520 107 525 102.33 543.67 115 553 107 578.33 132 590 132 577 118 592.33 115 609 110 626 97 641 97 646 86 649.29 82.5 652 89 673.67 110.33 678 110.33 690 101 721 110 739 132 763 144.33 749 120 763 101 788.33 107 814 120 842.09 102.76 861.33 125 869 120 875 121 868.67 94 860.17 89 875 83 899 80 930.72 78.37 958.33 82.26 976 80 982 86 1007.67 80 1027 77 1054 83 1080 86"/>
  </g>
</svg>